<svg width="1024" height="1024" viewBox="0 0 1024 1024" fill="none" xmlns="http://www.w3.org/2000/svg">
<g clip-path="url(#clip0_1001_2)">
<rect x="178" y="228" width="650" height="681" fill="white"/>
<path d="M756 892.5H757.5V891V485C757.5 473.126 747.874 463.5 736 463.5H271C259.126 463.5 249.5 473.126 249.5 485V891V892.5H251H756Z" fill="#D9D9D9" stroke="#14532D" stroke-width="3"/>
<rect x="251" y="595" width="505" height="295" fill="#FCFDFD"/>
<rect x="251" y="530" width="505" height="65" fill="#FCFDFD"/>
<rect x="251.5" y="530.5" width="504" height="64" stroke="black" stroke-opacity="0.1"/>
<path d="M251 485C251 473.954 259.954 465 271 465H736C747.046 465 756 473.954 756 485V530H251V485Z" fill="#FCFDFD"/>
<path d="M296.909 517H290.009V496.636H297.048C299.07 496.636 300.807 497.044 302.259 497.859C303.717 498.668 304.837 499.831 305.619 501.349C306.402 502.867 306.793 504.684 306.793 506.798C306.793 508.92 306.398 510.742 305.609 512.267C304.827 513.792 303.697 514.962 302.219 515.777C300.747 516.592 298.977 517 296.909 517ZM293.697 513.808H296.73C298.149 513.808 299.332 513.55 300.28 513.033C301.228 512.509 301.94 511.73 302.418 510.696C302.895 509.655 303.134 508.356 303.134 506.798C303.134 505.241 302.895 503.948 302.418 502.92C301.94 501.886 301.234 501.114 300.3 500.604C299.372 500.087 298.218 499.828 296.839 499.828H293.697V513.808ZM310.858 517V496.636H324.102V499.729H314.547V505.257H323.416V508.349H314.547V513.908H324.181V517H310.858ZM328.425 517V496.636H336.062C337.626 496.636 338.939 496.908 339.999 497.452C341.066 497.995 341.872 498.758 342.415 499.739C342.966 500.713 343.241 501.85 343.241 503.149C343.241 504.455 342.962 505.589 342.406 506.55C341.855 507.504 341.043 508.243 339.969 508.767C338.896 509.284 337.576 509.543 336.012 509.543H330.573V506.48H335.515C336.43 506.48 337.179 506.354 337.762 506.102C338.345 505.844 338.776 505.469 339.055 504.979C339.34 504.482 339.482 503.872 339.482 503.149C339.482 502.427 339.34 501.81 339.055 501.3C338.77 500.783 338.335 500.392 337.752 500.126C337.169 499.855 336.416 499.719 335.495 499.719H332.114V517H328.425ZM338.945 507.773L343.986 517H339.87L334.918 507.773H338.945ZM358.263 502.234C358.17 501.366 357.779 500.69 357.09 500.206C356.407 499.722 355.519 499.48 354.425 499.48C353.656 499.48 352.997 499.596 352.446 499.828C351.896 500.06 351.475 500.375 351.184 500.773C350.892 501.17 350.743 501.625 350.736 502.135C350.736 502.559 350.832 502.927 351.024 503.239C351.223 503.55 351.492 503.815 351.83 504.034C352.168 504.246 352.542 504.425 352.953 504.571C353.364 504.717 353.779 504.839 354.196 504.939L356.105 505.416C356.874 505.595 357.613 505.837 358.323 506.142C359.039 506.447 359.678 506.831 360.242 507.295C360.812 507.759 361.263 508.32 361.594 508.976C361.926 509.632 362.091 510.401 362.091 511.283C362.091 512.476 361.786 513.527 361.176 514.435C360.567 515.336 359.685 516.042 358.532 516.553C357.385 517.056 355.996 517.308 354.365 517.308C352.781 517.308 351.406 517.063 350.239 516.572C349.079 516.082 348.171 515.366 347.515 514.425C346.865 513.483 346.514 512.337 346.461 510.984H350.09C350.143 511.694 350.362 512.284 350.746 512.754C351.131 513.225 351.631 513.576 352.247 513.808C352.871 514.04 353.567 514.156 354.336 514.156C355.138 514.156 355.84 514.037 356.443 513.798C357.053 513.553 357.531 513.215 357.875 512.784C358.22 512.347 358.396 511.836 358.402 511.253C358.396 510.723 358.24 510.285 357.935 509.94C357.63 509.589 357.202 509.297 356.652 509.065C356.109 508.827 355.472 508.615 354.743 508.429L352.426 507.832C350.749 507.402 349.424 506.749 348.449 505.874C347.481 504.992 346.997 503.822 346.997 502.364C346.997 501.164 347.322 500.113 347.972 499.212C348.628 498.31 349.52 497.611 350.647 497.114C351.774 496.61 353.05 496.358 354.475 496.358C355.92 496.358 357.186 496.61 358.273 497.114C359.367 497.611 360.225 498.304 360.848 499.192C361.471 500.073 361.793 501.088 361.813 502.234H358.263ZM383.37 503.507H379.652C379.546 502.897 379.35 502.357 379.065 501.886C378.78 501.409 378.425 501.005 378.001 500.673C377.577 500.342 377.093 500.093 376.549 499.928C376.012 499.755 375.432 499.669 374.809 499.669C373.702 499.669 372.721 499.947 371.866 500.504C371.011 501.054 370.341 501.863 369.858 502.93C369.374 503.991 369.132 505.287 369.132 506.818C369.132 508.376 369.374 509.688 369.858 510.756C370.348 511.816 371.018 512.618 371.866 513.162C372.721 513.699 373.699 513.967 374.799 513.967C375.409 513.967 375.979 513.888 376.51 513.729C377.046 513.563 377.527 513.321 377.951 513.003C378.382 512.685 378.743 512.294 379.035 511.83C379.333 511.366 379.539 510.835 379.652 510.239L383.37 510.259C383.231 511.226 382.93 512.134 382.465 512.983C382.008 513.831 381.408 514.58 380.666 515.23C379.923 515.873 379.055 516.377 378.061 516.741C377.066 517.099 375.963 517.278 374.75 517.278C372.96 517.278 371.362 516.864 369.957 516.036C368.552 515.207 367.445 514.01 366.636 512.446C365.827 510.882 365.423 509.006 365.423 506.818C365.423 504.624 365.831 502.748 366.646 501.19C367.461 499.626 368.572 498.429 369.977 497.601C371.382 496.772 372.973 496.358 374.75 496.358C375.883 496.358 376.937 496.517 377.912 496.835C378.886 497.153 379.754 497.621 380.517 498.237C381.279 498.847 381.905 499.596 382.396 500.484C382.893 501.366 383.218 502.374 383.37 503.507ZM387.309 517V496.636H394.945C396.509 496.636 397.822 496.908 398.882 497.452C399.95 497.995 400.755 498.758 401.299 499.739C401.849 500.713 402.124 501.85 402.124 503.149C402.124 504.455 401.845 505.589 401.289 506.55C400.738 507.504 399.926 508.243 398.853 508.767C397.779 509.284 396.46 509.543 394.895 509.543H389.456V506.48H394.398C395.313 506.48 396.062 506.354 396.645 506.102C397.229 505.844 397.659 505.469 397.938 504.979C398.223 504.482 398.365 503.872 398.365 503.149C398.365 502.427 398.223 501.81 397.938 501.3C397.653 500.783 397.219 500.392 396.635 500.126C396.052 499.855 395.3 499.719 394.378 499.719H390.997V517H387.309ZM397.828 507.773L402.87 517H398.753L393.801 507.773H397.828ZM409.768 496.636V517H406.079V496.636H409.768ZM414.323 517V496.636H421.959C423.524 496.636 424.836 496.928 425.897 497.511C426.964 498.095 427.77 498.897 428.313 499.918C428.863 500.932 429.138 502.085 429.138 503.378C429.138 504.684 428.863 505.844 428.313 506.858C427.763 507.872 426.951 508.671 425.877 509.254C424.803 509.831 423.481 510.119 421.91 510.119H416.849V507.087H421.413C422.327 507.087 423.076 506.928 423.66 506.609C424.243 506.291 424.674 505.854 424.952 505.297C425.237 504.74 425.38 504.1 425.38 503.378C425.38 502.655 425.237 502.019 424.952 501.469C424.674 500.919 424.24 500.491 423.65 500.186C423.066 499.875 422.314 499.719 421.393 499.719H418.012V517H414.323ZM432.008 499.729V496.636H448.255V499.729H441.961V517H438.302V499.729H432.008ZM455.636 496.636V517H451.947V496.636H455.636ZM478.387 506.818C478.387 509.012 477.976 510.892 477.154 512.456C476.338 514.014 475.225 515.207 473.813 516.036C472.407 516.864 470.813 517.278 469.03 517.278C467.247 517.278 465.649 516.864 464.237 516.036C462.832 515.2 461.718 514.004 460.897 512.446C460.081 510.882 459.674 509.006 459.674 506.818C459.674 504.624 460.081 502.748 460.897 501.19C461.718 499.626 462.832 498.429 464.237 497.601C465.649 496.772 467.247 496.358 469.03 496.358C470.813 496.358 472.407 496.772 473.813 497.601C475.225 498.429 476.338 499.626 477.154 501.19C477.976 502.748 478.387 504.624 478.387 506.818ZM474.678 506.818C474.678 505.274 474.436 503.971 473.952 502.911C473.475 501.843 472.812 501.038 471.963 500.494C471.115 499.944 470.137 499.669 469.03 499.669C467.923 499.669 466.945 499.944 466.097 500.494C465.248 501.038 464.582 501.843 464.098 502.911C463.621 503.971 463.382 505.274 463.382 506.818C463.382 508.363 463.621 509.669 464.098 510.736C464.582 511.796 465.248 512.602 466.097 513.152C466.945 513.696 467.923 513.967 469.03 513.967C470.137 513.967 471.115 513.696 471.963 513.152C472.812 512.602 473.475 511.796 473.952 510.736C474.436 509.669 474.678 508.363 474.678 506.818ZM499.169 496.636V517H495.887L486.292 503.129H486.123V517H482.434V496.636H485.735L495.321 510.517H495.499V496.636H499.169ZM514.942 496.636V517H511.253V496.636H514.942ZM536.231 496.636V517H532.95L523.355 503.129H523.186V517H519.497V496.636H522.798L532.383 510.517H532.562V496.636H536.231ZM551.878 502.234C551.785 501.366 551.394 500.69 550.704 500.206C550.022 499.722 549.133 499.48 548.04 499.48C547.271 499.48 546.611 499.596 546.061 499.828C545.511 500.06 545.09 500.375 544.798 500.773C544.506 501.17 544.357 501.625 544.351 502.135C544.351 502.559 544.447 502.927 544.639 503.239C544.838 503.55 545.106 503.815 545.444 504.034C545.782 504.246 546.157 504.425 546.568 504.571C546.979 504.717 547.393 504.839 547.811 504.939L549.72 505.416C550.489 505.595 551.228 505.837 551.937 506.142C552.653 506.447 553.293 506.831 553.856 507.295C554.426 507.759 554.877 508.32 555.209 508.976C555.54 509.632 555.706 510.401 555.706 511.283C555.706 512.476 555.401 513.527 554.791 514.435C554.181 515.336 553.299 516.042 552.146 516.553C550.999 517.056 549.611 517.308 547.98 517.308C546.396 517.308 545.02 517.063 543.853 516.572C542.693 516.082 541.785 515.366 541.129 514.425C540.479 513.483 540.128 512.337 540.075 510.984H543.704C543.757 511.694 543.976 512.284 544.361 512.754C544.745 513.225 545.246 513.576 545.862 513.808C546.485 514.04 547.181 514.156 547.95 514.156C548.752 514.156 549.455 514.037 550.058 513.798C550.668 513.553 551.145 513.215 551.49 512.784C551.835 512.347 552.01 511.836 552.017 511.253C552.01 510.723 551.854 510.285 551.549 509.94C551.245 509.589 550.817 509.297 550.267 509.065C549.723 508.827 549.087 508.615 548.358 508.429L546.041 507.832C544.364 507.402 543.038 506.749 542.064 505.874C541.096 504.992 540.612 503.822 540.612 502.364C540.612 501.164 540.937 500.113 541.586 499.212C542.243 498.31 543.134 497.611 544.261 497.114C545.388 496.61 546.664 496.358 548.089 496.358C549.534 496.358 550.8 496.61 551.888 497.114C552.981 497.611 553.84 498.304 554.463 499.192C555.086 500.073 555.407 501.088 555.427 502.234H551.878ZM558.66 499.729V496.636H574.907V499.729H568.613V517H564.954V499.729H558.66ZM578.753 517H574.815L581.984 496.636H586.538L593.717 517H589.78L584.341 500.812H584.182L578.753 517ZM578.882 509.016H589.621V511.979H578.882V509.016ZM596.96 517V496.636H600.649V513.908H609.617V517H596.96ZM613.379 517V496.636H617.068V513.908H626.037V517H613.379ZM633.179 517H629.242L636.411 496.636H640.965L648.144 517H644.206L638.767 500.812H638.608L633.179 517ZM633.308 509.016H644.047V511.979H633.308V509.016ZM648.03 499.729V496.636H664.277V499.729H657.983V517H654.324V499.729H648.03ZM671.658 496.636V517H667.969V496.636H671.658ZM694.409 506.818C694.409 509.012 693.998 510.892 693.176 512.456C692.36 514.014 691.247 515.207 689.835 516.036C688.43 516.864 686.835 517.278 685.052 517.278C683.269 517.278 681.672 516.864 680.26 516.036C678.854 515.2 677.741 514.004 676.919 512.446C676.103 510.882 675.696 509.006 675.696 506.818C675.696 504.624 676.103 502.748 676.919 501.19C677.741 499.626 678.854 498.429 680.26 497.601C681.672 496.772 683.269 496.358 685.052 496.358C686.835 496.358 688.43 496.772 689.835 497.601C691.247 498.429 692.36 499.626 693.176 501.19C693.998 502.748 694.409 504.624 694.409 506.818ZM690.7 506.818C690.7 505.274 690.458 503.971 689.974 502.911C689.497 501.843 688.834 501.038 687.985 500.494C687.137 499.944 686.159 499.669 685.052 499.669C683.945 499.669 682.967 499.944 682.119 500.494C681.271 501.038 680.604 501.843 680.12 502.911C679.643 503.971 679.405 505.274 679.405 506.818C679.405 508.363 679.643 509.669 680.12 510.736C680.604 511.796 681.271 512.602 682.119 513.152C682.967 513.696 683.945 513.967 685.052 513.967C686.159 513.967 687.137 513.696 687.985 513.152C688.834 512.602 689.497 511.796 689.974 510.736C690.458 509.669 690.7 508.363 690.7 506.818ZM715.191 496.636V517H711.909L702.314 503.129H702.145V517H698.456V496.636H701.757L711.343 510.517H711.522V496.636H715.191Z" fill="black"/>
<path d="M185.294 156.375C186.086 156.375 186.878 156.375 187.693 156.375C189.076 156.357 189.076 156.357 190.486 156.339C191.492 156.351 192.498 156.364 193.534 156.376C194.612 156.37 195.69 156.363 196.801 156.356C200.438 156.34 204.075 156.359 207.713 156.378C210.337 156.374 212.961 156.368 215.585 156.359C221.303 156.344 227.021 156.348 232.739 156.364C241.243 156.387 249.745 156.382 258.248 156.371C273.433 156.352 288.618 156.362 303.803 156.383C317.091 156.402 330.379 156.41 343.667 156.409C344.988 156.409 344.988 156.409 346.336 156.408C349.911 156.408 353.485 156.408 357.06 156.407C390.609 156.402 424.157 156.425 457.706 156.461C487.527 156.493 517.348 156.505 547.169 156.499C549.084 156.499 550.998 156.498 552.913 156.498C553.86 156.498 554.806 156.497 555.782 156.497C560.546 156.496 565.311 156.495 570.076 156.494C571.486 156.494 571.486 156.494 572.924 156.494C597.826 156.49 622.727 156.5 647.628 156.514C648.513 156.515 649.399 156.515 650.311 156.516C651.637 156.517 651.637 156.517 652.99 156.517C653.872 156.518 654.755 156.519 655.664 156.519C657.441 156.52 659.218 156.521 660.995 156.522C673.396 156.53 685.797 156.532 698.197 156.53C714.176 156.528 730.155 156.536 746.134 156.562C754.589 156.575 763.044 156.58 771.499 156.573C777.802 156.569 784.105 156.581 790.407 156.598C792.965 156.603 795.523 156.603 798.081 156.597C801.543 156.59 805.004 156.601 808.466 156.617C809.472 156.61 810.478 156.604 811.514 156.597C817.615 156.65 821.034 157.458 825.75 161.5C835.258 172.91 828 191.148 828 206C613.5 206 399 206 178 206C178 158.362 178 158.362 185.294 156.375Z" fill="#FBFBFB"/>
<path d="M94 912C171.11 911.88 248.22 911.769 325.33 911.704C326.471 911.703 327.612 911.702 328.787 911.701C353.578 911.68 378.368 911.66 403.159 911.643C415.316 911.634 427.473 911.625 439.63 911.616C441.445 911.614 441.445 911.614 443.296 911.613C482.526 911.583 521.757 911.53 560.988 911.466C601.293 911.4 641.599 911.357 681.905 911.343C687.594 911.341 693.284 911.338 698.974 911.336C700.093 911.335 701.213 911.335 702.367 911.334C720.412 911.326 738.456 911.294 756.501 911.252C774.63 911.211 792.76 911.195 810.89 911.206C821.668 911.211 832.446 911.197 843.225 911.154C850.42 911.128 857.614 911.127 864.809 911.147C868.912 911.158 873.015 911.157 877.118 911.126C880.85 911.098 884.581 911.101 888.314 911.131C890.289 911.138 892.265 911.111 894.24 911.083C901.371 911.178 905.438 912.018 910.534 917.163C914.778 922.481 915.729 927.444 915 934C912.427 938.955 909.018 942.491 904 945C902.207 945.097 900.411 945.128 898.616 945.13C897.464 945.134 896.311 945.137 895.123 945.141C893.844 945.14 892.564 945.138 891.246 945.137C889.877 945.139 888.509 945.142 887.141 945.145C883.351 945.152 879.561 945.153 875.771 945.153C871.66 945.154 867.548 945.161 863.436 945.167C855.268 945.178 847.099 945.184 838.931 945.188C829.152 945.193 819.373 945.204 809.595 945.214C785.957 945.24 762.319 945.255 738.681 945.268C730.854 945.272 723.028 945.277 715.201 945.282C673.615 945.307 632.029 945.329 590.443 945.341C580.805 945.344 571.166 945.347 561.527 945.35C560.33 945.351 559.132 945.351 557.899 945.351C519.055 945.363 480.212 945.394 441.369 945.436C401.459 945.479 361.549 945.505 321.639 945.511C316.006 945.511 310.374 945.512 304.741 945.513C303.633 945.514 302.524 945.514 301.382 945.514C283.514 945.517 265.646 945.538 247.777 945.564C229.829 945.59 211.882 945.598 193.934 945.587C183.262 945.581 172.589 945.589 161.917 945.617C154.796 945.634 147.674 945.633 140.553 945.618C136.49 945.609 132.428 945.609 128.366 945.63C124.672 945.65 120.98 945.646 117.286 945.624C115.327 945.618 113.368 945.637 111.408 945.657C101.937 945.563 101.937 945.563 98.2964 942.711C94.7347 938.506 93.7459 935.884 93.8047 930.359C93.8111 929.29 93.8176 928.22 93.8242 927.117C93.841 926.006 93.8577 924.895 93.875 923.75C93.884 922.623 93.893 921.497 93.9023 920.336C93.9259 917.557 93.9588 914.779 94 912Z" fill="#14532D"/>
<path d="M178 206C392.5 206 607 206 828 206C828 213.92 828 221.84 828 230C613.5 230 399 230 178 230C178 222.08 178 214.16 178 206Z" fill="#384C5D"/>
<path d="M605 810C645.26 810 685.52 810 727 810C727 836.4 727 862.8 727 890C686.74 890 646.48 890 605 890C605 863.6 605 837.2 605 810Z" fill="#14532D"/>
<path d="M88.7501 753.812C89.8535 753.8 90.957 753.788 92.0938 753.775C102.919 753.756 112.886 754.873 122.75 759.5C123.884 760.02 123.884 760.02 125.041 760.551C130.407 763.083 135.564 765.905 140.625 769C141.251 769.378 141.877 769.757 142.523 770.146C144.416 771.353 146.195 772.666 148 774C149.098 774.646 149.098 774.646 150.218 775.305C153.595 777.76 155.628 779.997 156.411 784.212C157.039 790.947 156.772 797.687 156.563 804.437C156.531 806.512 156.503 808.587 156.479 810.662C156.42 814.434 156.354 818.204 156.241 821.974C156.208 823.107 156.208 823.107 156.174 824.263C156 826 156 826 155 827C155.33 827.33 155.66 827.66 156 828C156.087 829.562 156.107 831.127 156.098 832.691C156.093 834.108 156.093 834.108 156.088 835.553C156.075 837.043 156.075 837.043 156.063 838.562C156.058 839.56 156.054 840.557 156.049 841.584C156.037 844.056 156.021 846.528 156 849C146.855 853.573 130.333 850.293 120.844 847.391C94.2324 838.238 76.0339 818.935 63.7704 794.212C60.3834 787.049 57.8864 779.567 55.6026 771.988C55.0235 770.077 54.3994 768.181 53.7735 766.285C53.0018 763.007 53.0353 761.184 54.0001 758C56.1658 757.516 58.3327 757.038 60.5001 756.562C61.7067 756.296 62.9132 756.029 64.1563 755.754C72.4233 754.132 80.3406 753.817 88.7501 753.812Z" fill="#14532D"/>
<path d="M945.837 726C945.495 734.516 943.633 741.973 940.837 750C940.313 751.56 940.313 751.56 939.778 753.152C934.877 766.873 927.661 779.23 917.837 790C917.152 790.766 916.468 791.531 915.762 792.32C901.238 807.731 880.8 818.759 859.837 822C857.197 822 854.557 822 851.837 822C851.837 833.88 851.837 845.76 851.837 858C851.507 858 851.177 858 850.837 858C850.79 849.299 850.755 840.598 850.733 831.896C850.723 827.856 850.708 823.816 850.686 819.776C850.664 815.88 850.652 811.983 850.647 808.086C850.643 806.597 850.636 805.108 850.625 803.62C850.611 801.539 850.609 799.458 850.61 797.377C850.605 796.192 850.601 795.006 850.596 793.784C850.837 791 850.837 791 852.837 789C852.177 789 851.517 789 850.837 789C850.429 782.634 850.15 776.272 849.958 769.896C849.878 767.732 849.769 765.569 849.63 763.408C848.537 745.976 848.537 745.976 852.342 741.052C856.64 737.284 861.581 735.108 866.837 733C868.152 732.397 869.464 731.786 870.771 731.166C895.561 719.648 919.701 718.575 945.837 726Z" fill="#14532D"/>
<path d="M626.241 754.943C628.644 754.941 631.047 754.939 633.45 754.937C665.305 754.91 697.151 755.378 729 756C729 759.3 729 762.6 729 766C683.045 766.069 637.09 766.122 591.134 766.153C585.714 766.157 580.294 766.161 574.874 766.165C573.795 766.166 572.716 766.166 571.604 766.167C554.11 766.18 536.617 766.204 519.123 766.231C501.185 766.259 483.247 766.276 465.309 766.282C454.232 766.286 443.155 766.299 432.078 766.324C424.492 766.34 416.906 766.344 409.32 766.341C404.937 766.339 400.554 766.342 396.171 766.358C392.164 766.372 388.157 766.373 384.15 766.363C382.695 766.361 381.24 766.365 379.786 766.375C377.818 766.387 375.851 766.378 373.884 766.369C372.24 766.371 372.24 766.371 370.563 766.373C369.717 766.25 368.872 766.127 368 766C366 763 366 763 366.313 759.875C367 757 367 757 368 756C370.603 755.89 373.179 755.845 375.782 755.842C376.609 755.837 377.435 755.832 378.287 755.827C381.082 755.811 383.877 755.803 386.672 755.795C388.671 755.785 390.669 755.775 392.667 755.765C398.139 755.737 403.612 755.717 409.084 755.697C414.884 755.675 420.684 755.647 426.484 755.621C436.312 755.576 446.139 755.536 455.966 755.497C465.889 755.459 475.812 755.417 485.735 755.372C487.535 755.364 487.535 755.364 489.372 755.356C490.57 755.35 491.767 755.345 493.001 755.339C537.414 755.138 581.827 754.96 626.241 754.943Z" fill="#E7E9EB"/>
<path d="M371.557 737.752C372.65 737.752 373.742 737.753 374.868 737.754C376.126 737.75 377.384 737.746 378.68 737.742C380.089 737.748 381.498 737.753 382.907 737.759C384.394 737.759 385.881 737.757 387.367 737.754C391.468 737.75 395.567 737.758 399.668 737.768C404.083 737.776 408.499 737.774 412.915 737.772C420.571 737.771 428.226 737.777 435.882 737.789C446.951 737.805 458.02 737.81 469.089 737.812C487.046 737.817 505.002 737.83 522.959 737.849C540.407 737.867 557.854 737.882 575.301 737.89C576.376 737.891 577.451 737.891 578.558 737.892C583.95 737.894 589.342 737.897 594.733 737.899C639.489 737.92 684.244 737.955 729 738C729 741.3 729 744.6 729 748C683.189 748.091 637.378 748.162 591.568 748.204C586.164 748.209 580.76 748.214 575.356 748.22C574.28 748.221 573.204 748.222 572.096 748.223C554.658 748.24 537.22 748.272 519.781 748.309C501.899 748.346 484.017 748.368 466.134 748.376C455.092 748.382 444.051 748.399 433.009 748.432C425.446 748.453 417.883 748.459 410.319 748.454C405.95 748.451 401.582 748.455 397.213 748.477C393.217 748.496 389.222 748.497 385.227 748.484C383.777 748.482 382.328 748.487 380.878 748.5C378.916 748.515 376.954 748.505 374.991 748.492C373.899 748.494 372.806 748.495 371.681 748.497C369 748 369 748 367.114 746.102C366 744 366 744 366.187 741.875C367.456 738.947 368.354 738.063 371.557 737.752Z" fill="#E7E8E8"/>
<path d="M378.206 628.754C380.092 628.748 380.092 628.748 382.015 628.742C383.408 628.748 384.8 628.753 386.192 628.759C387.673 628.759 389.154 628.757 390.635 628.754C394.706 628.75 398.776 628.758 402.847 628.768C407.236 628.776 411.625 628.774 416.014 628.772C423.619 628.771 431.224 628.777 438.829 628.789C449.824 628.805 460.819 628.81 471.815 628.812C489.654 628.817 507.492 628.83 525.331 628.849C542.661 628.867 559.991 628.882 577.321 628.89C578.389 628.891 579.457 628.891 580.557 628.892C585.915 628.894 591.273 628.897 596.631 628.899C641.087 628.92 685.544 628.955 730 629C730 631.97 730 634.94 730 638C683.9 638.023 637.801 638.04 591.701 638.051C586.265 638.052 580.828 638.054 575.392 638.055C574.31 638.055 573.227 638.055 572.112 638.056C554.563 638.06 537.013 638.068 519.464 638.077C501.47 638.086 483.477 638.092 465.484 638.094C454.372 638.095 443.26 638.1 432.147 638.108C424.538 638.113 416.929 638.115 409.32 638.113C404.923 638.113 400.526 638.114 396.129 638.119C392.111 638.124 388.092 638.124 384.073 638.121C382.613 638.12 381.153 638.122 379.693 638.125C377.721 638.129 375.749 638.126 373.777 638.123C372.677 638.123 371.578 638.124 370.445 638.124C368 638 368 638 367 637C366.959 635 366.957 633 367 631C370.885 629.189 373.934 628.751 378.206 628.754Z" fill="#E6EAEA"/>
<path d="M370.439 647.876C371.535 647.876 372.631 647.876 373.761 647.877C375.02 647.875 376.28 647.873 377.578 647.871C378.993 647.874 380.409 647.877 381.825 647.88C383.315 647.879 384.805 647.878 386.295 647.877C390.409 647.875 394.522 647.879 398.636 647.884C403.065 647.888 407.494 647.887 411.922 647.886C419.602 647.885 427.282 647.889 434.961 647.894C446.065 647.902 457.169 647.905 468.272 647.906C486.285 647.908 504.298 647.915 522.311 647.924C539.814 647.934 557.316 647.941 574.819 647.945C575.897 647.945 576.975 647.946 578.086 647.946C583.494 647.947 588.902 647.948 594.31 647.95C639.207 647.96 684.103 647.978 729 648C729 650.97 729 653.94 729 657C683.172 657.046 637.344 657.081 591.517 657.102C586.111 657.105 580.706 657.107 575.301 657.11C574.225 657.11 573.149 657.111 572.04 657.111C554.595 657.12 537.15 657.136 519.704 657.154C501.816 657.173 483.928 657.184 466.04 657.188C454.994 657.191 443.948 657.2 432.901 657.216C425.336 657.226 417.771 657.23 410.206 657.227C405.835 657.226 401.464 657.228 397.094 657.238C393.098 657.248 389.102 657.249 385.106 657.242C383.655 657.241 382.204 657.243 380.754 657.25C378.792 657.258 376.83 657.252 374.868 657.246C373.776 657.247 372.683 657.248 371.557 657.248C369 657 369 657 367 655C366.812 651.937 366.812 651.937 367 649C368 648 368 648 370.439 647.876Z" fill="#E5E8E9"/>
<path d="M88.75 753.812C89.8534 753.8 90.9569 753.788 92.0938 753.775C102.919 753.756 112.886 754.873 122.75 759.5C123.884 760.02 123.884 760.02 125.041 760.551C130.407 763.083 135.564 765.905 140.625 769C141.251 769.378 141.877 769.757 142.522 770.146C144.415 771.353 146.195 772.666 148 774C148.733 774.43 149.465 774.86 150.22 775.303C153.604 777.758 155.635 779.994 156.404 784.219C157.008 790.974 156.726 797.732 156.5 804.5C156.46 806.583 156.423 808.667 156.391 810.75C156.303 815.835 156.165 820.917 156 826C151.743 823.585 147.593 821.16 143.562 818.375C142.698 817.785 141.833 817.194 140.941 816.586C140.301 816.063 139.66 815.539 139 815C139 814.34 139 813.68 139 813C138.268 812.731 137.536 812.461 136.781 812.183C134.081 811.034 131.904 809.733 129.496 808.066C128.673 807.5 127.85 806.933 127.002 806.35C126.156 805.76 125.309 805.17 124.438 804.562C123.587 803.977 122.737 803.391 121.861 802.787C115.739 798.557 115.739 798.557 113.009 796.5C110.877 794.908 108.697 793.417 106.488 791.934C105.648 791.366 104.809 790.798 103.943 790.213C102.18 789.023 100.414 787.835 98.6465 786.65C97.8105 786.084 96.9746 785.517 96.1133 784.934C95.348 784.419 94.5827 783.903 93.7942 783.373C92 782 92 782 91 780C89.3432 779.309 87.6742 778.647 86 778C82.2756 775.964 78.6383 773.786 74.9966 771.605C73.2464 770.56 71.4887 769.529 69.7305 768.498C68.0772 767.511 68.0772 767.511 66.3906 766.504C65.3803 765.904 64.37 765.304 63.3291 764.686C61 763 61 763 60 760C57.03 759.505 57.03 759.505 54 759C54 758.67 54 758.34 54 758C56.1657 757.516 58.3326 757.038 60.5 756.562C61.7066 756.296 62.9131 756.029 64.1562 755.754C72.4232 754.132 80.3405 753.817 88.75 753.812Z" fill="#14532E"/>
<path d="M137.688 666.688C140.898 667.96 143.071 669.106 145.113 671.949C147.954 678.518 146.45 685.643 143.938 692.062C140.663 699.153 136.797 706.643 131 712C132.365 715.534 133.9 718.917 135.602 722.301C136.336 723.765 136.336 723.765 137.086 725.26C137.594 726.267 138.102 727.275 138.625 728.312C139.141 729.339 139.656 730.366 140.188 731.424C141.457 733.95 142.727 736.475 144 739C143.969 738.336 143.937 737.672 143.905 736.987C142.833 710.921 142.833 710.921 152.078 700.703C154 699 154 699 156 699C156.33 722.1 156.66 745.2 157 769C156.34 769 155.68 769 155 769C154.505 770.485 154.505 770.485 154 772C153.769 771.129 153.539 770.257 153.301 769.359C151.084 761.265 148.428 753.671 145 746C144.27 746.144 143.541 746.289 142.789 746.438C117.42 750.947 117.42 750.947 108.5 745.25C104.881 742.407 103.255 739.673 102.562 735.125C103.182 730.702 104.856 729.144 108 726C116.053 723.316 123.546 725.393 131 729C133.833 730.832 136.418 732.836 139 735C137.711 732.228 136.419 729.457 135.125 726.688C134.76 725.902 134.395 725.116 134.02 724.307C133.665 723.549 133.311 722.792 132.945 722.012C132.458 720.967 132.458 720.967 131.961 719.901C130.926 717.759 130.926 717.759 129 715C127.583 715.142 126.166 715.289 124.75 715.438C123.961 715.519 123.172 715.6 122.359 715.684C120.065 715.938 120.065 715.938 118.146 716.505C114.077 717.444 109.909 717.269 105.75 717.312C104.375 717.356 104.375 717.356 102.973 717.4C96.0197 717.465 90.841 716.147 85.4053 711.694C82.7807 708.997 81.6521 706.614 81.4375 702.938C82.0516 698.639 82.9225 696.987 86 694C90.7766 691.612 97.0087 692.118 102.017 693.595C109.931 696.463 117.069 699.92 123 706C123.892 702.655 123.892 702.655 123.543 699.281C121.885 692.317 121.754 682.321 124.828 675.723C128.155 670.832 131.661 667.198 137.688 666.688Z" fill="#14532D"/>
<path d="M370.439 720.876C371.535 720.876 372.631 720.876 373.761 720.877C375.02 720.875 376.28 720.873 377.578 720.871C378.993 720.874 380.409 720.877 381.825 720.88C383.315 720.879 384.805 720.878 386.295 720.877C390.409 720.875 394.522 720.879 398.636 720.884C403.065 720.888 407.494 720.887 411.922 720.886C419.602 720.885 427.282 720.889 434.961 720.894C446.065 720.902 457.169 720.905 468.272 720.906C486.285 720.908 504.298 720.915 522.311 720.924C539.814 720.934 557.316 720.941 574.819 720.945C575.897 720.945 576.975 720.946 578.086 720.946C583.494 720.947 588.902 720.948 594.31 720.95C639.207 720.96 684.103 720.978 729 721C729 723.64 729 726.28 729 729C683.172 729.023 637.344 729.04 591.517 729.051C586.111 729.052 580.706 729.054 575.301 729.055C573.687 729.055 573.687 729.055 572.04 729.056C554.595 729.06 537.15 729.068 519.704 729.077C501.816 729.086 483.928 729.092 466.04 729.094C454.994 729.095 443.948 729.1 432.901 729.108C425.336 729.113 417.771 729.115 410.206 729.113C405.835 729.113 401.464 729.114 397.094 729.119C393.098 729.124 389.102 729.124 385.106 729.121C383.655 729.12 382.204 729.122 380.754 729.125C378.792 729.129 376.83 729.126 374.868 729.123C373.776 729.123 372.683 729.124 371.557 729.124C369 729 369 729 367 728C366.957 726 366.959 724 367 722C368 721 368 721 370.439 720.876Z" fill="#E5E7E9"/>
<path d="M945.837 726C941.779 729.526 937.532 731.847 932.774 734.25C925.419 738.048 918.629 742.259 911.837 747C909.842 748.342 907.84 749.671 905.837 751C905.177 750.67 904.517 750.34 903.837 750C903.837 749.01 903.837 748.02 903.837 747C903.699 748.016 903.561 749.032 903.419 750.078C901.84 755.583 897.126 757.841 892.524 760.75C891.669 761.313 890.814 761.877 889.932 762.457C885.95 765.066 881.92 767.55 877.837 770C877.342 756.14 877.342 756.14 876.837 742C876.892 744.073 876.948 746.146 877.005 748.281C877.012 750.313 877.018 752.346 877.014 754.378C877.021 755.779 877.047 757.179 877.094 758.579C877.462 770.177 877.462 770.177 873.539 774.578C870.726 776.617 867.878 778.326 864.837 780C863.607 780.889 862.393 781.802 861.208 782.75C860.24 783.492 859.272 784.235 858.274 785C857.283 785.763 856.292 786.526 855.27 787.312C852.837 789 852.837 789 850.837 789C850.429 782.634 850.15 776.272 849.958 769.896C849.878 767.732 849.769 765.569 849.63 763.408C848.537 745.976 848.537 745.976 852.342 741.052C856.64 737.284 861.581 735.108 866.837 733C868.152 732.397 869.464 731.786 870.771 731.166C895.561 719.648 919.701 718.575 945.837 726Z" fill="#14532D"/>
<path d="M864.375 668.125C868.45 669.109 870.127 669.971 873 673C877.562 680.479 878.723 687.284 878 696C877.211 698.81 876.154 701.307 875 704C875 704.99 875 705.98 875 707C877.64 703.04 880.28 699.08 883 695C952 604 884 697 883.25 699.437C882.055 701.888 880.951 703.162 879 705C879.702 704.541 880.403 704.082 881.125 703.609C899.585 691.671 899.585 691.671 911 693C914.113 694.313 916.453 695.905 918 699C918.581 703.893 918.624 706.837 915.563 710.812C909.793 716.662 903.386 717.17 895.438 717.312C889.901 717.207 885.296 716.486 880 715C875.927 714.448 875.927 714.448 872 715C869.681 717.002 868.312 719.415 866.813 722.062C866.008 723.387 865.202 724.712 864.395 726.035C864.008 726.689 863.62 727.343 863.221 728.016C861.305 731.129 859.159 734.051 857 737C857.99 736.457 858.98 735.915 860 735.355C880.421 724.241 880.421 724.241 890 726C893.116 727.699 895.39 729.779 897 733C897.232 740.304 897.232 740.304 896 744C888.819 750.583 880.796 751.36 871.379 751.289C865.049 750.747 857.184 749.53 852.098 745.488C845.959 737.165 851 709.525 851 699C856.905 706.047 856.692 713.159 856 722C855.372 725.493 854.587 728.869 853.657 732.293C852.843 735.184 852.843 735.184 853 739C855.084 735.959 857.167 732.917 859.25 729.875C859.837 729.019 860.423 728.163 861.028 727.281C864.046 722.872 867.05 718.455 870 714C868.466 710.61 866.454 707.88 864.188 704.937C857.932 696.464 852.636 686.8 854 676C856.535 671.192 858.588 667.911 864.375 668.125Z" fill="#14532D"/>
<path d="M460.98 665.752C461.799 665.752 462.619 665.753 463.463 665.754C464.407 665.75 465.352 665.746 466.325 665.742C467.37 665.748 468.414 665.753 469.491 665.759C470.595 665.758 471.699 665.756 472.837 665.754C476.562 665.751 480.287 665.762 484.012 665.773C486.673 665.773 489.333 665.773 491.993 665.772C497.734 665.771 503.474 665.777 509.214 665.789C517.514 665.805 525.814 665.81 534.113 665.812C547.578 665.817 561.043 665.83 574.507 665.849C587.589 665.867 600.671 665.882 613.753 665.89C614.962 665.891 614.962 665.891 616.196 665.892C620.239 665.894 624.282 665.897 628.325 665.899C661.883 665.92 695.442 665.955 729 666C729 668.97 729 671.94 729 675C639.57 675 550.14 675 458 675C457.67 672.69 457.34 670.38 457 668C459 666 459 666 460.98 665.752Z" fill="#E7E9E9"/>
<path d="M307 725C310.3 725 313.6 725 317 725C317.495 728.465 317.495 728.465 318 732C323.282 733.2 323.282 733.2 328 731C329.938 731.062 329.938 731.062 332 732C334.25 734.562 334.25 734.562 336 737C335.464 737.681 334.928 738.361 334.375 739.062C332.612 742.06 332.612 742.06 333.812 745.812C334.4 747.39 334.4 747.39 335 749C336.98 749.33 338.96 749.66 341 750C341 752.64 341 755.28 341 758C339.886 758.206 338.772 758.412 337.625 758.625C333.785 759.626 333.785 759.626 332.438 762.938C331.629 766.166 331.629 766.166 334 769C333.621 772.035 332.75 773.376 331 776C328.438 775.488 325.904 774.975 323.375 774.312C320.736 773.7 320.736 773.7 318 776C316.787 779.054 316.787 779.054 316 782C313.03 782 310.06 782 307 782C306.917 781.051 306.835 780.103 306.75 779.125C306.33 775.958 306.33 775.958 304.188 774.562C301.656 773.911 300.414 774.034 298 775C297.34 775.66 296.68 776.32 296 777C293.4 776.832 292.193 776.16 290.188 774.5C288.583 771.123 289.196 768.727 289.871 765.121C290.233 762.695 290.233 762.695 288 760C286.032 758.938 284.034 757.929 282 757C282 754.69 282 752.38 282 750C284.31 749.34 286.62 748.68 289 748C289.677 744.597 289.677 744.597 290 741C289.34 740.34 288.68 739.68 288 739C288.186 736.211 289.055 734.927 290.75 732.688C293 731 293 731 295.5 731.188C297.023 731.682 298.544 732.181 300.062 732.688C302.055 733.141 302.055 733.141 304.188 732.438C306.33 731.042 306.33 731.042 306.75 727.875C306.833 726.926 306.915 725.978 307 725Z" fill="#14532D"/>
<path d="M307 636C310.3 636 313.6 636 317 636C317.495 639.465 317.495 639.465 318 643C323.282 644.2 323.282 644.2 328 642C329.938 642.062 329.938 642.062 332 643C334.25 645.562 334.25 645.562 336 648C335.464 648.681 334.928 649.361 334.375 650.062C332.612 653.06 332.612 653.06 333.812 656.812C334.4 658.39 334.4 658.39 335 660C336.98 660.33 338.96 660.66 341 661C341 663.64 341 666.28 341 669C339.886 669.206 338.773 669.412 337.625 669.625C333.785 670.626 333.785 670.626 332.438 673.938C331.629 677.166 331.629 677.166 334 680C333.621 683.035 332.75 684.376 331 687C328.438 686.488 325.904 685.975 323.375 685.312C320.736 684.7 320.736 684.7 318 687C316.787 690.054 316.787 690.054 316 693C313.03 693 310.06 693 307 693C306.917 692.051 306.835 691.103 306.75 690.125C306.33 686.958 306.33 686.958 304.188 685.562C301.656 684.911 300.414 685.034 298 686C297.34 686.66 296.68 687.32 296 688C293.4 687.832 292.193 687.16 290.188 685.5C288.583 682.123 289.196 679.727 289.871 676.121C290.233 673.695 290.233 673.695 288 671C286.032 669.938 284.034 668.929 282 668C282 665.69 282 663.38 282 661C284.31 660.34 286.62 659.68 289 659C289.677 655.597 289.677 655.597 290 652C289.34 651.34 288.68 650.68 288 650C288.186 647.211 289.055 645.927 290.75 643.688C293 642 293 642 295.5 642.188C297.023 642.682 298.544 643.181 300.062 643.688C302.055 644.141 302.055 644.141 304.188 643.438C306.33 642.042 306.33 642.042 306.75 638.875C306.833 637.926 306.915 636.978 307 636Z" fill="#14532D"/>
<path d="M308 814C309.479 813.973 310.958 813.954 312.438 813.938C313.261 813.926 314.085 813.914 314.934 813.902C317 814 317 814 318 815C318.041 817 318.043 819 318 821C323.387 821.952 323.387 821.952 328.688 821.25C329.832 821.126 329.832 821.126 331 821C333.812 823.438 333.812 823.438 336 826C335.67 826.577 335.34 827.155 335 827.75C333.293 831.59 334.122 835.049 335 839C336.98 839 338.96 839 341 839C341 841.97 341 844.94 341 848C339.02 848 337.04 848 335 848C334.608 849.412 334.237 850.83 333.875 852.25C333.666 853.039 333.457 853.828 333.242 854.641C332.957 857.42 333.55 858.659 335 861C333.02 863.475 333.02 863.475 331 866C330.299 865.67 329.598 865.34 328.875 865C325.74 863.91 323.294 863.847 320 864C319.01 866.31 318.02 868.62 317 871C314.03 871 311.06 871 308 871C307.01 868.69 306.02 866.38 305 864C301.053 863.821 298.402 863.906 295 866C293.35 864.02 291.7 862.04 290 860C290.66 859.01 291.32 858.02 292 857C291.667 853.801 291.017 851.051 290 848C288.35 848 286.7 848 285 848C285 845.03 285 842.06 285 839C286.65 838.34 288.3 837.68 290 837C290.905 832.145 290.905 832.145 290.312 827.312C290.209 826.549 290.106 825.786 290 825C291.938 822.688 291.938 822.688 294 821C295.031 821.371 296.062 821.743 297.125 822.125C301.334 823.075 303.122 822.703 307 821C307.33 818.69 307.66 816.38 308 814Z" fill="#14532D"/>
<path d="M463.782 773.871C464.62 773.874 465.458 773.877 466.32 773.88C467.203 773.879 468.086 773.878 468.996 773.877C471.978 773.875 474.96 773.881 477.942 773.886C480.07 773.887 482.198 773.887 484.326 773.886C490.124 773.886 495.921 773.892 501.718 773.899C507.769 773.905 513.82 773.905 519.872 773.907C531.339 773.91 542.807 773.918 554.275 773.928C567.326 773.939 580.378 773.945 593.43 773.95C620.287 773.96 647.143 773.978 674 774C674 776.97 674 779.94 674 783C646.019 783.047 618.039 783.082 590.058 783.104C577.067 783.114 564.075 783.128 551.084 783.151C539.764 783.171 528.444 783.184 517.124 783.188C511.128 783.191 505.131 783.197 499.134 783.211C493.495 783.225 487.855 783.229 482.216 783.226C480.142 783.227 478.067 783.231 475.993 783.238C473.17 783.248 470.347 783.246 467.523 783.24C466.695 783.246 465.867 783.252 465.014 783.258C461.148 783.238 459.294 783.196 456 781C457.059 773.889 457.059 773.889 463.782 773.871Z" fill="#E7E9EB"/>
<path d="M374.828 830.737C375.65 830.742 376.473 830.748 377.32 830.753C378.626 830.749 378.626 830.749 379.959 830.746C382.894 830.74 385.829 830.749 388.764 830.757C390.861 830.756 392.958 830.754 395.055 830.751C400.764 830.747 406.472 830.754 412.181 830.764C418.142 830.773 424.103 830.771 430.064 830.771C440.076 830.772 450.088 830.781 460.099 830.794C471.692 830.81 483.284 830.815 494.877 830.815C506.007 830.814 517.138 830.819 528.268 830.827C533.015 830.831 537.762 830.833 542.508 830.833C548.092 830.834 553.676 830.84 559.26 830.85C561.315 830.853 563.371 830.855 565.427 830.854C568.22 830.854 571.013 830.859 573.807 830.866C574.631 830.865 575.456 830.863 576.305 830.862C581.886 830.886 581.886 830.886 583 832C583.187 834.938 583.187 834.938 583 838C580.421 840.578 578.69 840.245 575.176 840.272C574.354 840.268 573.533 840.265 572.686 840.261C571.381 840.267 571.381 840.267 570.05 840.272C567.117 840.283 564.184 840.279 561.252 840.275C559.156 840.279 557.061 840.284 554.965 840.29C549.261 840.304 543.556 840.304 537.852 840.302C533.098 840.301 528.343 840.306 523.589 840.31C512.378 840.321 501.167 840.322 489.955 840.316C478.371 840.31 466.786 840.322 455.202 840.343C445.271 840.361 435.341 840.367 425.411 840.364C419.473 840.362 413.535 840.365 407.597 840.378C402.015 840.391 396.434 840.389 390.853 840.376C388.799 840.374 386.746 840.376 384.692 840.385C381.899 840.395 379.106 840.387 376.313 840.374C375.492 840.382 374.67 840.389 373.823 840.397C371.567 840.375 371.567 840.375 368 840C366 837 366 837 366.25 834.938C367.974 830.483 370.475 830.764 374.828 830.737Z" fill="#E5E7E9"/>
<path d="M459 684C529.62 684 600.24 684 673 684C673 686.97 673 689.94 673 693C645.132 693.047 617.265 693.082 589.397 693.104C576.459 693.114 563.52 693.128 550.582 693.151C539.308 693.171 528.035 693.184 516.761 693.188C510.789 693.191 504.816 693.197 498.843 693.211C493.228 693.225 487.612 693.229 481.996 693.226C479.93 693.227 477.863 693.231 475.797 693.238C472.986 693.248 470.176 693.246 467.365 693.241C466.538 693.246 465.711 693.252 464.859 693.258C459.228 693.228 459.228 693.228 457 691C457.327 688.384 457.82 686.359 459 684Z" fill="#E5E8E9"/>
<path d="M374.668 812.857C375.899 812.858 375.899 812.858 377.155 812.86C378.02 812.857 378.885 812.854 379.777 812.851C382.699 812.842 385.621 812.84 388.543 812.839C390.628 812.834 392.714 812.829 394.799 812.824C400.481 812.811 406.163 812.804 411.844 812.8C415.39 812.797 418.935 812.793 422.48 812.788C433.558 812.775 444.636 812.765 455.714 812.761C468.527 812.757 481.341 812.739 494.154 812.71C504.042 812.689 513.93 812.678 523.818 812.677C529.731 812.676 535.644 812.67 541.558 812.652C547.117 812.636 552.676 812.634 558.235 812.642C560.28 812.643 562.326 812.639 564.371 812.629C567.154 812.616 569.936 812.622 572.718 812.633C573.536 812.625 574.355 812.616 575.198 812.608C577.446 812.628 577.446 812.628 581 813C583 816 583 816 582.625 819.188C582.419 820.116 582.212 821.044 582 822C554.115 822.023 526.23 822.041 498.345 822.052C485.399 822.057 472.453 822.064 459.506 822.075C448.226 822.085 436.947 822.092 425.667 822.094C419.691 822.095 413.714 822.099 407.738 822.106C402.119 822.113 396.501 822.115 390.883 822.113C388.815 822.113 386.746 822.115 384.678 822.119C381.867 822.124 379.056 822.123 376.245 822.12C375.415 822.123 374.585 822.126 373.73 822.129C368.114 822.114 368.114 822.114 367 821C367.869 812.892 367.869 812.892 374.668 812.857Z" fill="#E4E6E6"/>
<path d="M374.833 848.742C375.656 848.748 376.479 848.753 377.327 848.759C378.198 848.758 379.07 848.756 379.968 848.754C382.905 848.751 385.842 848.762 388.78 848.773C390.879 848.773 392.977 848.773 395.076 848.772C400.789 848.771 406.501 848.783 412.214 848.797C418.178 848.81 424.143 848.811 430.107 848.813C441.408 848.819 452.709 848.836 464.011 848.856C476.874 848.878 489.737 848.889 502.6 848.899C529.067 848.92 555.533 848.955 582 849C582.33 851.31 582.66 853.62 583 856C579.172 858.552 576.078 858.278 571.642 858.254C570.78 858.257 569.917 858.26 569.028 858.263C566.126 858.271 563.224 858.265 560.322 858.259C558.246 858.261 556.17 858.265 554.094 858.269C548.448 858.278 542.801 858.275 537.155 858.269C531.255 858.264 525.356 858.268 519.456 858.271C509.549 858.275 499.642 858.27 489.735 858.261C478.266 858.25 466.798 858.253 455.33 858.264C445.498 858.273 435.665 858.275 425.832 858.269C419.953 858.266 414.075 858.266 408.196 858.272C402.671 858.278 397.147 858.274 391.622 858.263C389.589 858.26 387.557 858.261 385.524 858.265C382.76 858.271 379.995 858.264 377.231 858.254C376.011 858.261 376.011 858.261 374.767 858.267C369.228 858.228 369.228 858.228 367 856C366.75 853.5 366.75 853.5 367 851C369.582 848.418 371.315 848.761 374.833 848.742Z" fill="#E8E9E9"/>
<path d="M118.125 635.812C121.934 637.386 124.245 639.304 126 643C128.733 657.98 118.799 670.338 111 682C111.369 682.565 111.738 683.13 112.117 683.712C113.774 686.261 115.418 688.818 117.062 691.375C117.643 692.264 118.224 693.154 118.822 694.07C119.367 694.921 119.912 695.772 120.473 696.648C121.235 697.827 121.235 697.827 122.012 699.029C122.338 699.679 122.664 700.33 123 701C122.67 701.66 122.34 702.32 122 703C115.565 693.1 115.565 693.1 109 683C106.339 683.248 106.339 683.248 103.625 683.5C75.5085 685.557 75.5085 685.557 63.9375 678C61.0936 675.064 60.1773 673.165 59.5625 669.125C60.1817 664.702 61.8555 663.144 65 660C72.7152 657.428 78.996 659.387 86.3008 662.223C89.087 663.025 90.331 663.008 93 662C92.6906 661.257 92.3812 660.515 92.0625 659.75C91.1905 657.493 90.5233 655.355 90 653C92.3978 655.226 94.2016 657.309 96 660.062C97.8735 662.814 99.3778 664.077 102 666C103.25 668.188 103.25 668.188 104 670C103.843 669.487 103.685 668.974 103.523 668.445C101.688 659.87 101.934 650.669 106.445 643.035C109.617 638.884 112.679 636.139 118.125 635.812Z" fill="#14532D"/>
<path d="M888 637C894.209 640.224 896.807 644.537 899 651C899.936 660.423 898.998 668.415 895 677C895.748 676.108 896.496 675.216 897.266 674.297C898.261 673.115 899.255 671.932 900.25 670.75C900.741 670.164 901.232 669.577 901.738 668.973C904.375 665.844 907.047 662.84 910 660C910 660.99 910 661.98 910 663C913.789 662.502 917.256 661.621 920.875 660.438C926.469 658.73 931.266 657.785 936.813 660.25C940.141 662.913 941.784 664.576 942.438 668.875C941.853 673.051 940.827 674.836 938 678C930.381 682.853 923.532 684.142 914.563 684.188C913.306 684.202 912.049 684.216 910.754 684.23C906.9 683.994 903.68 683.126 900 682C895.997 682.286 893.327 683.814 890 686C890.66 684.35 891.32 682.7 892 681C891.564 680.622 891.129 680.245 890.68 679.855C885.324 674.906 882.206 669.498 879 663C878.381 661.907 877.763 660.814 877.125 659.688C875.335 653.82 875.223 648.072 876 642C879.143 636.857 882.143 636.075 888 637Z" fill="#14532D"/>
<path d="M664 849C667.618 850.464 669.215 852.264 671.438 855.438C672.46 856.884 672.46 856.884 673.504 858.359C675.471 861.21 677.406 864.081 679.34 866.953C679.923 867.815 680.505 868.677 681.106 869.565C682.28 871.305 683.447 873.051 684.607 874.801C685.147 875.602 685.686 876.404 686.242 877.23C686.725 877.956 687.209 878.682 687.707 879.43C688.133 879.948 688.56 880.466 689 881C689.66 881 690.32 881 691 881C692.389 879.039 693.726 877.038 695 875C700.073 876.062 702.144 877.896 705.02 881.953C706 884 706 884 707 890C681.59 890 656.18 890 630 890C633.428 886.001 636.824 882.062 640.375 878.188C644.8 873.283 648.93 868.2 653 863C653.981 861.752 654.963 860.505 655.945 859.258C658.634 855.841 661.318 852.422 664 849Z" fill="#14532D"/>
<path d="M156 699C156.33 722.1 156.66 745.2 157 769C156.34 769 155.68 769 155 769C154.505 770.485 154.505 770.485 154 772C153.769 771.129 153.539 770.257 153.301 769.359C151.084 761.265 148.428 753.671 145 746C144.27 746.144 143.541 746.289 142.789 746.438C117.42 750.947 117.42 750.947 108.5 745.25C104.881 742.407 103.255 739.673 102.562 735.125C103.182 730.702 104.856 729.144 108 726C116.053 723.316 123.546 725.393 131 729C133.833 730.832 136.418 732.836 139 735C137.709 732.25 136.417 729.5 135.125 726.75C134.76 725.973 134.395 725.195 134.02 724.395C133.665 723.64 133.311 722.886 132.945 722.109C132.621 721.418 132.296 720.727 131.961 720.015C130.999 717.997 130.006 715.996 129 714C132 715 132 715 133.442 717.317C133.929 718.317 134.416 719.317 134.918 720.348C135.45 721.427 135.981 722.507 136.529 723.619C137.077 724.755 137.624 725.892 138.188 727.062C138.746 728.203 139.305 729.343 139.881 730.518C141.263 733.341 142.635 736.168 144 739C143.969 738.336 143.937 737.672 143.905 736.987C142.833 710.921 142.833 710.921 152.078 700.703C154 699 154 699 156 699Z" fill="#14532D"/>
<path d="M458 867C474.15 866.977 490.301 866.959 506.451 866.948C513.949 866.943 521.448 866.936 528.946 866.924C535.479 866.915 542.013 866.908 548.546 866.906C552.007 866.905 555.469 866.901 558.93 866.894C562.788 866.886 566.646 866.886 570.504 866.886C572.238 866.881 572.238 866.881 574.006 866.875C575.051 866.877 576.096 866.878 577.172 866.88C578.542 866.878 578.542 866.878 579.94 866.877C582 867 582 867 583 868C583.188 870.937 583.188 870.937 583 874C581 876 581 876 578.87 876.249C577.538 876.248 577.538 876.248 576.179 876.247C575.161 876.251 574.143 876.256 573.095 876.26C571.973 876.254 570.852 876.249 569.697 876.243C567.931 876.246 567.931 876.246 566.13 876.249C562.896 876.252 559.663 876.246 556.43 876.236C553.05 876.227 549.67 876.229 546.291 876.229C540.614 876.228 534.938 876.219 529.262 876.206C522.695 876.19 516.127 876.185 509.559 876.185C503.248 876.186 496.937 876.181 490.626 876.173C487.937 876.169 485.248 876.167 482.559 876.167C478.807 876.165 475.055 876.156 471.303 876.145C469.621 876.146 469.621 876.146 467.905 876.147C466.887 876.142 465.869 876.138 464.821 876.134C463.933 876.132 463.045 876.13 462.13 876.129C460 876 460 876 458 875C458 872.36 458 869.72 458 867Z" fill="#E8E9E9"/>
<path d="M118.125 635.812C121.934 637.386 124.245 639.304 126 643C128.733 657.98 118.798 670.338 111 682C111.369 682.565 111.737 683.13 112.117 683.712C113.774 686.261 115.418 688.818 117.062 691.375C117.643 692.264 118.224 693.154 118.822 694.07C119.367 694.921 119.911 695.772 120.472 696.648C120.98 697.434 121.488 698.219 122.012 699.029C122.338 699.679 122.664 700.33 123 701C122.67 701.66 122.34 702.32 122 703C119.534 699.276 117.079 695.545 114.625 691.812C113.926 690.757 113.227 689.702 112.508 688.615C111.837 687.594 111.167 686.572 110.476 685.52C109.858 684.582 109.241 683.645 108.604 682.679C105.707 677.84 105 674.586 105 669C104.34 668.01 103.68 667.02 103 666C101.954 656.917 102.273 648.496 108 641C111.016 637.851 113.644 636.081 118.125 635.812Z" fill="#14532D"/>
<path d="M376.934 865.757C377.635 865.755 378.336 865.753 379.059 865.751C381.375 865.748 383.691 865.758 386.008 865.77C387.615 865.771 389.223 865.771 390.831 865.771C394.198 865.773 397.566 865.781 400.933 865.794C405.259 865.811 409.585 865.815 413.91 865.814C417.229 865.815 420.547 865.82 423.865 865.827C425.461 865.831 427.056 865.833 428.652 865.833C430.876 865.835 433.1 865.844 435.325 865.855C437.226 865.861 437.226 865.861 439.167 865.866C442 866 442 866 443 867C443.188 870.438 443.188 870.438 443 874C441 876 441 876 437.995 876.247C436.705 876.246 435.416 876.245 434.088 876.243C433.022 876.246 433.022 876.246 431.934 876.249C429.58 876.253 427.225 876.242 424.871 876.231C423.24 876.229 421.608 876.229 419.977 876.229C416.556 876.228 413.136 876.219 409.715 876.206C405.321 876.189 400.927 876.185 396.533 876.186C393.164 876.186 389.795 876.18 386.426 876.173C384.805 876.17 383.185 876.168 381.564 876.167C379.304 876.165 377.043 876.156 374.783 876.145C372.85 876.14 372.85 876.14 370.878 876.134C368 876 368 876 367 875C366.75 871.563 366.75 871.563 367 868C370.696 865.536 372.524 865.752 376.934 865.757Z" fill="#EAEAEB"/>
<path d="M372.989 665.853C374.059 665.854 374.059 665.854 375.15 665.855C376.272 665.85 376.272 665.85 377.417 665.844C379.902 665.835 382.386 665.833 384.871 665.832C386.591 665.829 388.311 665.825 390.032 665.822C393.642 665.816 397.253 665.814 400.864 665.815C405.499 665.815 410.134 665.801 414.769 665.784C418.323 665.773 421.877 665.771 425.431 665.771C427.14 665.77 428.85 665.766 430.559 665.758C432.946 665.748 435.333 665.751 437.72 665.757C438.432 665.751 439.143 665.746 439.876 665.74C444.772 665.772 444.772 665.772 447 668C447.25 670.5 447.25 670.5 447 673C444.567 675.433 443.271 675.242 439.95 675.271C439.25 675.267 438.55 675.263 437.828 675.259C437.09 675.262 436.351 675.266 435.591 675.269C433.144 675.278 430.697 675.272 428.25 675.266C426.554 675.267 424.857 675.269 423.161 675.271C419.603 675.274 416.046 675.27 412.488 675.261C407.921 675.249 403.355 675.256 398.788 675.268C395.285 675.275 391.781 675.273 388.278 675.268C386.594 675.266 384.909 675.268 383.225 675.273C380.874 675.278 378.523 675.27 376.172 675.259C375.472 675.263 374.771 675.267 374.05 675.271C369.229 675.228 369.229 675.228 367 673C366.812 669.937 366.812 669.937 367 667C368.68 665.32 370.746 665.868 372.989 665.853Z" fill="#E8E8E9"/>
<path d="M372.884 773.876C373.582 773.879 374.279 773.883 374.998 773.886C376.096 773.886 376.096 773.886 377.215 773.886C379.645 773.887 382.074 773.895 384.504 773.902C386.184 773.904 387.864 773.906 389.544 773.907C393.975 773.91 398.405 773.92 402.836 773.931C407.353 773.942 411.871 773.946 416.389 773.951C425.259 773.962 434.13 773.979 443 774C443.625 777.375 443.625 777.375 444 781C441.132 783.868 439.136 783.26 435.119 783.275C434.412 783.28 433.704 783.285 432.976 783.29C430.631 783.304 428.286 783.303 425.941 783.301C424.315 783.305 422.688 783.309 421.062 783.314C417.649 783.321 414.237 783.321 410.825 783.316C406.449 783.31 402.073 783.327 397.697 783.35C394.337 783.365 390.976 783.366 387.616 783.363C386.002 783.363 384.389 783.368 382.775 783.378C380.52 783.391 378.265 783.384 376.01 783.372C374.084 783.373 374.084 783.373 372.119 783.374C369 783 369 783 367.046 781.641C366 780 366 780 366.25 777.375C367.526 773.335 368.868 773.884 372.884 773.876Z" fill="#E7E8EB"/>
<path d="M368 684C371.012 683.639 371.012 683.639 374.928 683.659C375.641 683.659 376.353 683.659 377.087 683.658C379.446 683.66 381.805 683.684 384.164 683.707C385.798 683.713 387.432 683.717 389.066 683.72C393.37 683.731 397.673 683.761 401.977 683.794C406.368 683.825 410.758 683.838 415.148 683.854C423.766 683.886 432.383 683.937 441 684C441.625 687.375 441.625 687.375 442 691C440 693 440 693 437.026 693.241C435.751 693.236 434.477 693.232 433.164 693.227C432.461 693.227 431.758 693.228 431.035 693.228C428.708 693.227 426.381 693.211 424.055 693.195C422.443 693.192 420.832 693.189 419.22 693.187C414.976 693.179 410.731 693.159 406.486 693.137C402.156 693.117 397.826 693.108 393.496 693.098C384.997 693.076 376.499 693.042 368 693C366.875 690.188 366.875 690.188 366 687C366.66 686.01 367.32 685.02 368 684Z" fill="#E6E8EA"/>
<path d="M76.5 615.875C83.1757 618.021 85.7792 622.964 88.9844 628.816C91.1285 633.426 91.1349 637.482 91.125 642.562C91.1308 643.571 91.1308 643.571 91.1367 644.6C91.1306 647.675 90.9799 650.06 90 653C84.9733 651.687 81.6144 649.436 77.875 645.938C77.3487 645.446 76.8225 644.954 76.2803 644.448C70.5828 638.91 67.9455 633.748 67.4375 625.75C67.608 622.108 67.9985 621.002 70.0625 617.812C73 616 73 616 76.5 615.875Z" fill="#14532D"/>
<path d="M931 617C933.5 618.438 933.5 618.438 935 621C935.965 627.63 934.708 632.464 930.969 638.016C930.155 639.101 929.332 640.178 928.5 641.25C928.065 641.815 927.63 642.38 927.182 642.962C922.979 648.276 918.234 652.69 913 657C913 656.01 913 655.02 913 654C912.966 652.392 912.931 650.784 912.895 649.176C912.867 647.221 912.84 645.267 912.813 643.313C912.788 642.344 912.762 641.375 912.737 640.377C912.643 631.166 914.579 624.751 921 618C924.211 616.395 927.517 616.532 931 617Z" fill="#14532D"/>
<path d="M316 741C319.075 742.702 321.406 744.812 323 748C323.573 752.699 323.417 756.15 321.312 760.437C318.776 763.248 317.692 764.262 314 765C308.975 765.229 305.932 764.742 301.937 761.562C299.508 758.05 299.298 754.597 299.5 750.41C300.317 746.473 302.078 744.714 305 742C308.484 740.258 312.199 740.413 316 741Z" fill="#FAFAFC"/>
<path d="M315.559 652.403C318.633 654.106 320.965 656.216 322.559 659.403C323.132 664.102 322.976 667.553 320.871 671.841C318.335 674.651 317.25 675.665 313.559 676.403C308.534 676.632 305.491 676.145 301.496 672.966C299.067 669.453 298.856 666 299.059 661.813C299.875 657.876 301.636 656.117 304.559 653.403C308.043 651.661 311.757 651.817 315.559 652.403Z" fill="#FAFAFC"/>
<path d="M318 832C321.41 834.15 323.745 836.121 325 840C325.503 843.858 325.156 845.694 323.375 849.187C320.023 853.157 317.089 854.744 311.937 855.375C308.458 854.931 306.726 854.21 304 852C301.111 847.617 300.432 844.206 301 839C302.399 835.581 303.654 834.241 306.687 832.125C310.831 830.718 313.828 830.727 318 832Z" fill="#F8F9FA"/>
<path d="M106 480C109.161 481.37 109.993 481.989 112 485C112.125 487.688 112.125 487.688 112 490C113.093 490.124 114.186 490.248 115.312 490.375C119 491 119 491 122 493C122 495.312 122 495.312 121 498C119.258 498.754 119.258 498.754 117.125 499.375C113.952 500.334 113.952 500.334 111.805 502.738C110.882 504.884 110.882 504.884 110 508C105.125 507.125 105.125 507.125 104 506C103.959 504 103.957 502 104 500C103.34 500 102.68 500 102 500C102 499.34 102 498.68 102 498C100.608 498.062 100.608 498.062 99.1875 498.125C96 498 96 498 93 496C93.2227 494.113 93.2227 494.113 94 492C95.9961 490.98 95.9961 490.98 98.4375 490.188C100.895 489.283 100.895 489.283 103 488C104.611 484.451 104.611 484.451 105 481C105.33 480.67 105.66 480.34 106 480Z" fill="#14532D"/>
<path d="M665 844C669.096 847.83 672.198 851.912 675.312 856.562C675.787 857.261 676.262 857.96 676.752 858.68C679.001 861.996 681.223 865.33 683.422 868.68C684.128 869.755 684.835 870.83 685.562 871.938C686.493 873.374 686.493 873.374 687.441 874.84C688.821 877.104 688.821 877.104 691 878C691.268 877.257 691.536 876.515 691.812 875.75C692.942 873.134 694.209 871.198 696 869C699.33 870.11 699.859 870.772 701.883 873.492C702.41 874.197 702.937 874.902 703.48 875.629C704.023 876.37 704.566 877.111 705.125 877.875C705.951 878.975 705.951 878.975 706.793 880.098C710.862 885.587 710.862 885.587 712 889C710.246 888.844 710.246 888.844 708 888C705.827 885.27 703.995 882.396 702.098 879.469C700.205 876.792 700.205 876.792 697.246 876.156C696.505 876.105 695.764 876.053 695 876C693.68 877.98 692.36 879.96 691 882C686.555 880.498 684.748 877.027 682.375 873.25C681.498 871.896 680.619 870.543 679.738 869.191C679.289 868.499 678.84 867.807 678.377 867.094C676.174 863.744 673.881 860.459 671.562 857.188C671.15 856.595 670.737 856.003 670.312 855.394C668.353 852.64 666.849 850.9 664 849C663.751 849.558 663.502 850.116 663.246 850.691C661.784 853.4 660.032 855.57 658.062 857.938C656.858 859.388 656.858 859.388 655.629 860.867C654.753 861.912 653.877 862.956 653 864C652.554 864.534 652.108 865.068 651.648 865.618C637.047 883.085 637.047 883.085 630 890C629.01 889.67 628.02 889.34 627 889C627.617 888.334 628.235 887.667 628.871 886.98C634.063 881.33 639.039 875.581 643.859 869.605C645.806 867.236 647.812 864.956 649.875 862.688C655.247 856.728 660.093 850.341 665 844Z" fill="#EBF8E9"/>
<path d="M906 414C906.66 414.33 907.32 414.66 908 415C908.351 416.052 908.701 417.104 909.062 418.188C910.815 422.671 914.102 424.389 918.137 426.738C918.752 427.155 919.366 427.571 920 428C920 428.66 920 429.32 920 430C919.397 430.184 918.793 430.369 918.172 430.559C913.093 432.393 913.093 432.393 909.512 436.27C908.55 438.491 907.707 440.685 907 443C904.965 441.242 904.03 440.084 903.102 437.52C901.731 434.385 900.261 433.46 897.375 431.688C896.149 430.92 896.149 430.92 894.898 430.137C894.272 429.762 893.645 429.386 893 429C895 426 895 426 897.875 424.812C901.673 422.61 902.538 420.66 904.238 416.742C905 415 905 415 906 414Z" fill="#FAFDFB"/>
<path d="M716 79C717.812 79.0625 717.812 79.0625 720 80C720.686 81.7306 721.368 83.463 722.008 85.2109C723.803 88.448 726.733 89.459 730 91C729.67 91.99 729.34 92.98 729 94C727.608 94.5878 727.608 94.5878 726.188 95.1875C721.919 97.6147 720.79 100.567 719 105C718.01 104.67 717.02 104.34 716 104C715.608 102.907 715.216 101.814 714.812 100.688C713.521 97.2766 712.071 96.1575 708.812 94.5625C707.551 94.0193 706.283 93.4906 705 93C705 92.01 705 91.02 705 90C705.543 89.7925 706.085 89.5849 706.645 89.3711C710.674 87.6361 713.263 86.4265 715 82.25C715.33 81.1775 715.66 80.105 716 79Z" fill="#14532D"/>
<path d="M448 86C449.938 87.0625 449.938 87.0625 451 89C451.499 92.9201 451.553 95.1159 449.438 98.5C447 100 447 100 443.438 100C440 99 440 99 438.063 97.25C436.766 94.5051 436.475 92.9993 437 90C440.002 85.5575 442.849 85.3444 448 86Z" fill="#E4ECE5"/>
<path d="M662.5 860.5C665 861 665 861 667.375 862.562C669 865 669 865 668.938 868.625C668 872 668 872 665 874C662 874.375 662 874.375 659 874C656.685 871.916 656.097 870.556 655.562 867.5C656.292 863.334 658.37 861.326 662.5 860.5Z" fill="#F4FBF5"/>
<path d="M448 84C451.661 86.1152 452.779 87.3377 454.125 91.375C453.954 96.335 452.499 97.582 449 101C446.147 102.427 444.165 102.31 441 102C438.3 100.2 436.458 98.9162 435 96C434.625 92.6875 434.625 92.6875 435 89C439.237 83.8706 441.519 82.348 448 84ZM438.5 87.5625C436.689 90.0287 436.689 90.0287 437 93.5625C437.722 96.975 437.722 96.975 439.75 98.9375C442.495 100.234 444.001 100.525 447 100C449.457 98.5433 449.457 98.5433 451 96C451.425 92.5377 451.639 90.1653 449.938 87.0625C445.965 84.8841 442.271 85.2058 438.5 87.5625Z" fill="#488764"/>
<path d="M697 871C700.962 872.547 702.982 875.046 705.625 878.312C706.401 879.257 707.177 880.202 707.977 881.176C709.829 883.762 710.985 886.004 712 889C709.51 888.622 708.281 888.301 706.536 886.434C706.096 885.775 705.656 885.116 705.203 884.438C704.478 883.366 704.478 883.366 703.738 882.273C703.247 881.523 702.756 880.773 702.25 880C701.743 879.25 701.237 878.5 700.715 877.727C697 872.179 697 872.179 697 871Z" fill="#F2FBF3"/>
<path d="M452 88C454 90 454 90 454 93.3125C452.722 98.025 451.108 99.4422 447 102C443.625 102.312 443.625 102.312 441 102C441 101.01 441 100.02 441 99C442.392 99.0309 442.392 99.0309 443.812 99.0625C447.023 99.1577 447.023 99.1577 450 98C450.66 94.7 451.32 91.4 452 88Z" fill="#5C9473"/>
<path d="M155 261C155.33 261 155.66 261 156 261C156 267.27 156 273.54 156 280C155.67 280 155.34 280 155 280C154.986 279.252 154.972 278.505 154.957 277.734C154.817 271.401 154.817 271.401 151.438 266.312C150.231 265.663 150.231 265.663 149 265C149.33 264.01 149.66 263.02 150 262C151.65 262.33 153.3 262.66 155 263C155 262.34 155 261.68 155 261Z" fill="#B3CEBD"/>
<path d="M665 846C665.99 846 666.98 846 668 846C670.043 848.555 670.043 848.555 672.188 851.875C672.903 852.966 673.618 854.056 674.355 855.18C676 858 676 858 676 860C672.163 858.506 670.538 856.364 668.25 853C667.636 852.113 667.023 851.226 666.391 850.312C665 848 665 848 665 846Z" fill="#F1FBF0"/>
<path d="M938 202C938.66 202.33 939.32 202.66 940 203C936.136 207.487 932.252 211.877 928 216C927.34 215.67 926.68 215.34 926 215C926.743 214.278 927.485 213.556 928.25 212.812C930.696 210.311 932.835 207.742 935 205C935.982 203.983 936.975 202.974 938 202Z" fill="#BEDCC8"/>
<path d="M696 869C696.99 869.33 697.98 869.66 699 870C698.67 870.66 698.34 871.32 698 872C698.892 874.117 698.892 874.117 700 876C698.02 876 696.04 876 694 876C693.67 875.01 693.34 874.02 693 873C694.438 870.812 694.438 870.812 696 869Z" fill="#DBEFDE"/>
<path d="M196 73C198.64 73 201.28 73 204 73C204 73.99 204 74.98 204 76C201.36 76 198.72 76 196 76C196 75.01 196 74.02 196 73Z" fill="#7FC091"/>
<path d="M183 74C184.98 74 186.96 74 189 74C189 74.99 189 75.98 189 77C186.69 77.33 184.38 77.66 182 78C182.33 76.68 182.66 75.36 183 74Z" fill="#71BF84"/>
<path d="M117.188 498.688C118.116 498.791 119.044 498.894 120 499C118 501 118 501 116 501.875C113.58 503.236 113.014 504.465 112 507C111 504 111 504 112.063 501.312C114 499 114 499 117.188 498.688Z" fill="#BFE2C6"/>
<path d="M274 105C277.367 106.393 278.986 107.979 281 111C279.68 111 278.36 111 277 111C276.67 110.01 276.34 109.02 276 108C275.34 108 274.68 108 274 108C274 107.01 274 106.02 274 105Z" fill="#55AC6D"/>
<path d="M131 246C133.062 246.438 133.062 246.438 135 247C135.33 248.32 135.66 249.64 136 251C135.01 251 134.02 251 133 251C131.312 249 131.312 249 130 247C130.33 246.67 130.66 246.34 131 246Z" fill="#58BB6D"/>
<path d="M126 108C127.32 108 128.64 108 130 108C128.951 110.622 128.351 111.794 125.875 113.25C125.256 113.497 124.637 113.745 124 114C124.506 111.831 125 110 126 108Z" fill="#55B871"/>
<path d="M150 88C150 89.32 150 90.64 150 92C148.35 92.66 146.7 93.32 145 94C144.67 93.01 144.34 92.02 144 91C147.75 88 147.75 88 150 88Z" fill="#61BA74"/>
<path d="M239 80C241.31 80.66 243.62 81.32 246 82C245.67 82.99 245.34 83.98 245 85C243.02 84.34 241.04 83.68 239 83C239 82.01 239 81.02 239 80Z" fill="#67BB7A"/>
<path d="M150 262C151.938 262.75 151.938 262.75 154 264C154.75 266.125 154.75 266.125 155 268C152.525 267.01 152.525 267.01 150 266C150 264.68 150 263.36 150 262Z" fill="#57B169"/>
<path d="M111 212C111.66 212 112.32 212 113 212C113.66 214.31 114.32 216.62 115 219C114.01 219 113.02 219 112 219C111.34 217.02 110.68 215.04 110 213C110.33 212.67 110.66 212.34 111 212Z" fill="#5DB275"/>
<path d="M104 158C104.66 158 105.32 158 106 158C106 160.31 106 162.62 106 165C105.01 165 104.02 165 103 165C102.957 163 102.959 161 103 159C103.33 158.67 103.66 158.34 104 158Z" fill="#60B876"/>
<path d="M119 119C119.66 119.33 120.32 119.66 121 120C120.25 122.438 120.25 122.438 119 125C116.875 125.812 116.875 125.812 115 126C116.32 123.69 117.64 121.38 119 119Z" fill="#54BA6C"/>
<path d="M284 117C284.99 117.33 285.98 117.66 287 118C288.188 121.062 288.188 121.062 289 124C288.01 124 287.02 124 286 124C284.539 121.353 284 120.106 284 117Z" fill="#54B067"/>
<path d="M252 86C254.438 86.75 254.438 86.75 257 88C257.812 90.125 257.812 90.125 258 92C255.562 91.25 255.562 91.25 253 90C252.188 87.875 252.188 87.875 252 86Z" fill="#63BB78"/>
<path d="M116 225C116.99 225 117.98 225 119 225C119.66 226.98 120.32 228.96 121 231C119.68 230.67 118.36 230.34 117 230C116.67 228.35 116.34 226.7 116 225Z" fill="#64B676"/>
<path d="M264 95C266 96 268 97 270 98C269.67 98.99 269.34 99.98 269 101C268.01 100.67 267.02 100.34 266 100C266 99.34 266 98.68 266 98C265.01 97.67 264.02 97.34 263 97C263.33 96.34 263.66 95.68 264 95Z" fill="#56AB6F"/>
<path d="M162 82C162 82.99 162 83.98 162 85C160.35 85.66 158.7 86.32 157 87C157 85.68 157 84.36 157 83C159 82 159 82 162 82Z" fill="#5AB976"/>
<path d="M102 172C102.99 172 103.98 172 105 172C105 173.98 105 175.96 105 178C104.01 178 103.02 178 102 178C102 176.02 102 174.04 102 172Z" fill="#63BC78"/>
<path d="M137 97C137.99 97.33 138.98 97.66 140 98C140 98.66 140 99.32 140 100C137 102 137 102 134 102C135.875 98.125 135.875 98.125 137 97Z" fill="#51B46D"/>
<path d="M176 77C176 77.99 176 78.98 176 80C174.02 80.33 172.04 80.66 170 81C170 80.01 170 79.02 170 78C172 77 172 77 176 77Z" fill="#5EB977"/>
<path d="M225 76C227.31 76.33 229.62 76.66 232 77C232 77.99 232 78.98 232 80C229.69 79.34 227.38 78.68 225 78C225 77.34 225 76.68 225 76Z" fill="#61B674"/>
<path d="M106 200C106.99 200.33 107.98 200.66 109 201C109.33 202.65 109.66 204.3 110 206C109.01 206 108.02 206 107 206C106.67 204.02 106.34 202.04 106 200Z" fill="#5AB673"/>
<path d="M104 186C104.66 186 105.32 186 106 186C106 187.98 106 189.96 106 192C105.01 192 104.02 192 103 192C102.957 190.334 102.959 188.666 103 187C103.33 186.67 103.66 186.34 104 186Z" fill="#5DB975"/>
<path d="M112 132C112.66 132 113.32 132 114 132C113.67 133.65 113.34 135.3 113 137C112.01 137.33 111.02 137.66 110 138C110.875 133.125 110.875 133.125 112 132Z" fill="#55B36D"/>
<path d="M238.325 392V297.455H273.78C281.043 297.455 287.137 298.716 292.061 301.24C297.016 303.764 300.755 307.303 303.279 311.858C305.834 316.382 307.111 321.66 307.111 327.692C307.111 333.755 305.818 339.018 303.233 343.481C300.679 347.913 296.908 351.344 291.923 353.776C286.937 356.176 280.812 357.376 273.549 357.376H248.297V343.158H271.241C275.488 343.158 278.966 342.573 281.674 341.403C284.382 340.203 286.383 338.464 287.675 336.187C288.999 333.879 289.661 331.047 289.661 327.692C289.661 324.338 288.999 321.476 287.675 319.106C286.352 316.705 284.336 314.889 281.628 313.658C278.92 312.397 275.426 311.766 271.148 311.766H255.452V392H238.325ZM287.168 349.159L310.573 392H291.461L268.471 349.159H287.168ZM325.476 392V297.455H386.968V311.812H342.603V337.479H383.782V351.837H342.603V377.643H387.337V392H325.476ZM419.182 392H400.901L434.186 297.455H455.329L488.66 392H470.379L445.127 316.844H444.388L419.182 392ZM419.782 354.93H469.64V368.687H419.782V354.93ZM535.752 392H503.713V297.455H536.398C545.785 297.455 553.848 299.347 560.588 303.133C567.359 306.888 572.56 312.289 576.192 319.337C579.823 326.384 581.639 334.817 581.639 344.635C581.639 354.483 579.808 362.947 576.146 370.026C572.514 377.104 567.267 382.536 560.404 386.322C553.571 390.107 545.354 392 535.752 392ZM520.84 377.181H534.921C541.507 377.181 547 375.981 551.401 373.58C555.802 371.149 559.111 367.533 561.327 362.732C563.543 357.9 564.651 351.867 564.651 344.635C564.651 337.402 563.543 331.401 561.327 326.631C559.111 321.83 555.833 318.244 551.494 315.874C547.185 313.474 541.83 312.273 535.428 312.273H520.84V377.181ZM600.512 297.455H621.471L649.539 365.963H650.647L678.716 297.455H699.674V392H683.24V327.046H682.363L656.233 391.723H643.953L617.824 326.908H616.947V392H600.512V297.455ZM720.925 392V297.455H782.416V311.812H738.052V337.479H779.231V351.837H738.052V377.643H782.786V392H720.925Z" fill="#14532D"/>
<path d="M395.845 552.636H399.534V565.94C399.534 567.399 399.189 568.681 398.5 569.788C397.817 570.895 396.856 571.76 395.616 572.384C394.377 573 392.929 573.308 391.271 573.308C389.607 573.308 388.156 573 386.916 572.384C385.677 571.76 384.715 570.895 384.033 569.788C383.35 568.681 383.009 567.399 383.009 565.94V552.636H386.697V565.632C386.697 566.481 386.883 567.236 387.254 567.899C387.632 568.562 388.162 569.082 388.845 569.46C389.528 569.831 390.337 570.017 391.271 570.017C392.206 570.017 393.015 569.831 393.697 569.46C394.387 569.082 394.917 568.562 395.288 567.899C395.66 567.236 395.845 566.481 395.845 565.632V552.636ZM416.856 561.764L413.574 562.122C413.482 561.791 413.319 561.479 413.087 561.188C412.862 560.896 412.557 560.661 412.172 560.482C411.788 560.303 411.317 560.213 410.76 560.213C410.011 560.213 409.382 560.375 408.871 560.7C408.367 561.025 408.119 561.446 408.125 561.963C408.119 562.407 408.281 562.768 408.613 563.047C408.951 563.325 409.508 563.554 410.283 563.733L412.888 564.29C414.333 564.601 415.407 565.095 416.11 565.771C416.819 566.447 417.177 567.332 417.184 568.426C417.177 569.387 416.895 570.236 416.339 570.972C415.788 571.701 415.023 572.271 414.042 572.682C413.061 573.093 411.934 573.298 410.661 573.298C408.792 573.298 407.287 572.907 406.147 572.125C405.007 571.336 404.327 570.239 404.108 568.834L407.618 568.496C407.777 569.185 408.116 569.705 408.633 570.057C409.15 570.408 409.822 570.584 410.651 570.584C411.506 570.584 412.192 570.408 412.709 570.057C413.233 569.705 413.495 569.271 413.495 568.754C413.495 568.317 413.326 567.955 412.988 567.67C412.656 567.385 412.139 567.167 411.437 567.014L408.831 566.467C407.367 566.162 406.283 565.649 405.58 564.926C404.877 564.197 404.529 563.276 404.536 562.162C404.529 561.221 404.785 560.405 405.302 559.716C405.825 559.02 406.551 558.483 407.479 558.105C408.414 557.721 409.491 557.528 410.711 557.528C412.5 557.528 413.909 557.91 414.937 558.672C415.971 559.434 416.61 560.465 416.856 561.764ZM425.947 573.308C424.979 573.308 424.107 573.136 423.332 572.791C422.563 572.44 421.953 571.923 421.502 571.24C421.058 570.557 420.836 569.715 420.836 568.714C420.836 567.853 420.995 567.14 421.313 566.577C421.631 566.013 422.066 565.562 422.616 565.224C423.166 564.886 423.786 564.631 424.475 564.459C425.171 564.28 425.89 564.151 426.633 564.071C427.528 563.978 428.253 563.895 428.81 563.822C429.367 563.743 429.771 563.624 430.023 563.464C430.282 563.299 430.411 563.044 430.411 562.699V562.639C430.411 561.89 430.189 561.31 429.745 560.899C429.301 560.488 428.661 560.283 427.826 560.283C426.944 560.283 426.245 560.475 425.728 560.859C425.217 561.244 424.873 561.698 424.694 562.222L421.333 561.744C421.598 560.816 422.036 560.041 422.646 559.418C423.255 558.788 424.001 558.317 424.883 558.006C425.764 557.688 426.739 557.528 427.806 557.528C428.542 557.528 429.274 557.615 430.003 557.787C430.733 557.959 431.399 558.244 432.002 558.642C432.605 559.033 433.089 559.567 433.454 560.243C433.825 560.919 434.011 561.764 434.011 562.778V573H430.55V570.902H430.431C430.212 571.326 429.904 571.724 429.506 572.095C429.115 572.46 428.621 572.755 428.025 572.98C427.435 573.199 426.742 573.308 425.947 573.308ZM426.881 570.663C427.604 570.663 428.23 570.521 428.761 570.236C429.291 569.944 429.699 569.56 429.984 569.082C430.275 568.605 430.421 568.085 430.421 567.521V565.722C430.308 565.814 430.116 565.901 429.844 565.98C429.579 566.06 429.281 566.129 428.95 566.189C428.618 566.249 428.29 566.302 427.965 566.348C427.64 566.394 427.359 566.434 427.12 566.467C426.583 566.54 426.102 566.66 425.678 566.825C425.254 566.991 424.919 567.223 424.674 567.521C424.429 567.813 424.306 568.191 424.306 568.655C424.306 569.318 424.548 569.818 425.032 570.156C425.516 570.494 426.132 570.663 426.881 570.663ZM445.672 579.045C444.379 579.045 443.269 578.87 442.341 578.518C441.413 578.174 440.667 577.71 440.104 577.126C439.54 576.543 439.149 575.897 438.93 575.188L442.172 574.402C442.318 574.7 442.53 574.995 442.808 575.287C443.087 575.585 443.461 575.83 443.932 576.023C444.409 576.222 445.009 576.321 445.732 576.321C446.752 576.321 447.598 576.072 448.267 575.575C448.937 575.085 449.271 574.276 449.271 573.149V570.256H449.092C448.907 570.627 448.635 571.008 448.277 571.399C447.926 571.79 447.458 572.118 446.875 572.384C446.298 572.649 445.573 572.781 444.698 572.781C443.524 572.781 442.46 572.506 441.506 571.956C440.558 571.399 439.802 570.571 439.239 569.47C438.682 568.363 438.403 566.978 438.403 565.314C438.403 563.637 438.682 562.222 439.239 561.068C439.802 559.908 440.561 559.03 441.516 558.433C442.47 557.83 443.534 557.528 444.707 557.528C445.602 557.528 446.338 557.681 446.915 557.986C447.498 558.284 447.962 558.645 448.307 559.07C448.652 559.487 448.913 559.882 449.092 560.253H449.291V557.727H452.841V573.249C452.841 574.554 452.529 575.635 451.906 576.49C451.283 577.345 450.431 577.985 449.351 578.409C448.27 578.833 447.044 579.045 445.672 579.045ZM445.702 569.957C446.464 569.957 447.114 569.772 447.651 569.401C448.188 569.029 448.595 568.496 448.874 567.8C449.152 567.104 449.291 566.268 449.291 565.294C449.291 564.333 449.152 563.491 448.874 562.768C448.602 562.046 448.198 561.486 447.661 561.088C447.13 560.684 446.477 560.482 445.702 560.482C444.9 560.482 444.23 560.69 443.693 561.108C443.156 561.526 442.752 562.099 442.48 562.828C442.208 563.551 442.073 564.373 442.073 565.294C442.073 566.229 442.208 567.047 442.48 567.75C442.759 568.446 443.166 568.99 443.703 569.381C444.247 569.765 444.913 569.957 445.702 569.957ZM464.691 573.298C463.16 573.298 461.838 572.98 460.724 572.344C459.617 571.701 458.765 570.793 458.169 569.619C457.572 568.439 457.274 567.051 457.274 565.453C457.274 563.882 457.572 562.503 458.169 561.317C458.772 560.124 459.614 559.196 460.694 558.533C461.775 557.863 463.044 557.528 464.502 557.528C465.444 557.528 466.332 557.681 467.167 557.986C468.009 558.284 468.751 558.748 469.394 559.378C470.044 560.008 470.554 560.81 470.926 561.784C471.297 562.752 471.482 563.905 471.482 565.244V566.348H458.964V563.922H468.032C468.026 563.232 467.876 562.619 467.585 562.082C467.293 561.539 466.885 561.111 466.362 560.8C465.845 560.488 465.241 560.332 464.552 560.332C463.816 560.332 463.17 560.511 462.613 560.869C462.056 561.221 461.622 561.685 461.311 562.261C461.006 562.831 460.85 563.458 460.843 564.141V566.259C460.843 567.147 461.006 567.909 461.33 568.545C461.655 569.175 462.109 569.659 462.693 569.997C463.276 570.329 463.959 570.494 464.741 570.494C465.265 570.494 465.739 570.421 466.163 570.276C466.587 570.123 466.955 569.901 467.267 569.609C467.578 569.318 467.813 568.956 467.973 568.526L471.333 568.903C471.121 569.792 470.717 570.567 470.12 571.23C469.53 571.886 468.775 572.397 467.853 572.761C466.932 573.119 465.878 573.298 464.691 573.298ZM488.121 552.636V573H484.432V552.636H488.121ZM496.956 564.051V573H493.356V557.727H496.797V560.322H496.976C497.327 559.467 497.887 558.788 498.656 558.284C499.432 557.78 500.39 557.528 501.53 557.528C502.584 557.528 503.502 557.754 504.284 558.205C505.073 558.655 505.683 559.308 506.114 560.163C506.551 561.018 506.767 562.056 506.76 563.276V573H503.16V563.832C503.16 562.812 502.895 562.013 502.365 561.436C501.841 560.859 501.115 560.571 500.187 560.571C499.558 560.571 498.998 560.71 498.507 560.989C498.023 561.26 497.642 561.655 497.364 562.172C497.092 562.689 496.956 563.315 496.956 564.051ZM523.89 561.764L520.609 562.122C520.516 561.791 520.354 561.479 520.122 561.188C519.896 560.896 519.591 560.661 519.207 560.482C518.822 560.303 518.352 560.213 517.795 560.213C517.046 560.213 516.416 560.375 515.906 560.7C515.402 561.025 515.153 561.446 515.16 561.963C515.153 562.407 515.316 562.768 515.647 563.047C515.985 563.325 516.542 563.554 517.318 563.733L519.923 564.29C521.368 564.601 522.442 565.095 523.144 565.771C523.854 566.447 524.211 567.332 524.218 568.426C524.211 569.387 523.93 570.236 523.373 570.972C522.823 571.701 522.057 572.271 521.076 572.682C520.095 573.093 518.968 573.298 517.695 573.298C515.826 573.298 514.321 572.907 513.181 572.125C512.041 571.336 511.362 570.239 511.143 568.834L514.653 568.496C514.812 569.185 515.15 569.705 515.667 570.057C516.184 570.408 516.857 570.584 517.685 570.584C518.541 570.584 519.227 570.408 519.744 570.057C520.267 569.705 520.529 569.271 520.529 568.754C520.529 568.317 520.36 567.955 520.022 567.67C519.691 567.385 519.174 567.167 518.471 567.014L515.866 566.467C514.401 566.162 513.317 565.649 512.614 564.926C511.912 564.197 511.564 563.276 511.57 562.162C511.564 561.221 511.819 560.405 512.336 559.716C512.86 559.02 513.586 558.483 514.514 558.105C515.448 557.721 516.525 557.528 517.745 557.528C519.535 557.528 520.943 557.91 521.971 558.672C523.005 559.434 523.645 560.465 523.89 561.764ZM536.213 557.727V560.511H527.433V557.727H536.213ZM529.6 554.068H533.2V568.406C533.2 568.89 533.273 569.261 533.419 569.52C533.571 569.772 533.77 569.944 534.015 570.037C534.26 570.13 534.532 570.176 534.83 570.176C535.056 570.176 535.261 570.16 535.447 570.126C535.639 570.093 535.785 570.063 535.884 570.037L536.491 572.851C536.299 572.917 536.024 572.99 535.666 573.07C535.314 573.149 534.884 573.196 534.373 573.209C533.472 573.235 532.66 573.099 531.937 572.801C531.214 572.496 530.641 572.026 530.217 571.389C529.799 570.753 529.594 569.957 529.6 569.003V554.068ZM540.623 573V557.727H544.113V560.273H544.272C544.55 559.391 545.028 558.712 545.704 558.234C546.387 557.75 547.165 557.509 548.04 557.509C548.239 557.509 548.461 557.518 548.707 557.538C548.959 557.552 549.167 557.575 549.333 557.608V560.919C549.181 560.866 548.939 560.82 548.607 560.78C548.282 560.733 547.968 560.71 547.663 560.71C547.006 560.71 546.416 560.853 545.893 561.138C545.376 561.416 544.968 561.804 544.67 562.301C544.371 562.798 544.222 563.372 544.222 564.021V573H540.623ZM562.859 566.577V557.727H566.458V573H562.968V570.286H562.809C562.464 571.141 561.898 571.84 561.109 572.384C560.327 572.927 559.362 573.199 558.215 573.199C557.214 573.199 556.329 572.977 555.561 572.533C554.798 572.082 554.202 571.429 553.771 570.574C553.34 569.712 553.124 568.671 553.124 567.452V557.727H556.724V566.895C556.724 567.863 556.989 568.632 557.519 569.202C558.05 569.772 558.746 570.057 559.607 570.057C560.138 570.057 560.651 569.928 561.149 569.669C561.646 569.411 562.053 569.026 562.372 568.516C562.696 567.999 562.859 567.352 562.859 566.577ZM578.222 573.298C576.697 573.298 575.388 572.964 574.294 572.294C573.207 571.625 572.368 570.7 571.778 569.52C571.195 568.333 570.903 566.968 570.903 565.423C570.903 563.872 571.202 562.503 571.798 561.317C572.395 560.124 573.237 559.196 574.324 558.533C575.418 557.863 576.71 557.528 578.202 557.528C579.441 557.528 580.538 557.757 581.493 558.214C582.454 558.665 583.22 559.305 583.79 560.134C584.36 560.955 584.685 561.917 584.764 563.017H581.324C581.185 562.281 580.853 561.668 580.329 561.178C579.812 560.68 579.12 560.432 578.251 560.432C577.516 560.432 576.869 560.631 576.312 561.028C575.756 561.42 575.321 561.983 575.01 562.719C574.705 563.455 574.552 564.336 574.552 565.364C574.552 566.404 574.705 567.299 575.01 568.048C575.315 568.791 575.742 569.364 576.293 569.768C576.849 570.166 577.502 570.365 578.251 570.365C578.782 570.365 579.256 570.266 579.673 570.067C580.097 569.861 580.452 569.566 580.737 569.182C581.022 568.797 581.218 568.33 581.324 567.78H584.764C584.678 568.86 584.36 569.818 583.81 570.653C583.259 571.482 582.51 572.132 581.562 572.602C580.615 573.066 579.501 573.298 578.222 573.298ZM596.746 557.727V560.511H587.966V557.727H596.746ZM590.134 554.068H593.733V568.406C593.733 568.89 593.806 569.261 593.952 569.52C594.105 569.772 594.303 569.944 594.549 570.037C594.794 570.13 595.066 570.176 595.364 570.176C595.589 570.176 595.795 570.16 595.981 570.126C596.173 570.093 596.319 570.063 596.418 570.037L597.025 572.851C596.832 572.917 596.557 572.99 596.199 573.07C595.848 573.149 595.417 573.196 594.907 573.209C594.005 573.235 593.193 573.099 592.471 572.801C591.748 572.496 591.175 572.026 590.75 571.389C590.333 570.753 590.127 569.957 590.134 569.003V554.068ZM601.156 573V557.727H604.756V573H601.156ZM602.966 555.56C602.396 555.56 601.906 555.371 601.495 554.993C601.084 554.608 600.878 554.148 600.878 553.611C600.878 553.067 601.084 552.607 601.495 552.229C601.906 551.844 602.396 551.652 602.966 551.652C603.543 551.652 604.033 551.844 604.438 552.229C604.849 552.607 605.054 553.067 605.054 553.611C605.054 554.148 604.849 554.608 604.438 554.993C604.033 555.371 603.543 555.56 602.966 555.56ZM616.519 573.298C615.028 573.298 613.735 572.97 612.641 572.314C611.548 571.658 610.699 570.74 610.096 569.56C609.499 568.38 609.201 567.001 609.201 565.423C609.201 563.846 609.499 562.464 610.096 561.277C610.699 560.09 611.548 559.169 612.641 558.513C613.735 557.857 615.028 557.528 616.519 557.528C618.011 557.528 619.303 557.857 620.397 558.513C621.491 559.169 622.336 560.09 622.933 561.277C623.536 562.464 623.837 563.846 623.837 565.423C623.837 567.001 623.536 568.38 622.933 569.56C622.336 570.74 621.491 571.658 620.397 572.314C619.303 572.97 618.011 573.298 616.519 573.298ZM616.539 570.415C617.348 570.415 618.024 570.193 618.567 569.749C619.111 569.298 619.515 568.695 619.781 567.939C620.052 567.183 620.188 566.341 620.188 565.413C620.188 564.479 620.052 563.634 619.781 562.878C619.515 562.116 619.111 561.509 618.567 561.058C618.024 560.607 617.348 560.382 616.539 560.382C615.71 560.382 615.021 560.607 614.471 561.058C613.927 561.509 613.52 562.116 613.248 562.878C612.983 563.634 612.85 564.479 612.85 565.413C612.85 566.341 612.983 567.183 613.248 567.939C613.52 568.695 613.927 569.298 614.471 569.749C615.021 570.193 615.71 570.415 616.539 570.415ZM631.892 564.051V573H628.292V557.727H631.733V560.322H631.912C632.263 559.467 632.823 558.788 633.592 558.284C634.368 557.78 635.326 557.528 636.466 557.528C637.52 557.528 638.438 557.754 639.22 558.205C640.009 558.655 640.619 559.308 641.049 560.163C641.487 561.018 641.702 562.056 641.696 563.276V573H638.096V563.832C638.096 562.812 637.831 562.013 637.301 561.436C636.777 560.859 636.051 560.571 635.123 560.571C634.494 560.571 633.933 560.71 633.443 560.989C632.959 561.26 632.578 561.655 632.299 562.172C632.028 562.689 631.892 563.315 631.892 564.051Z" fill="black"/>
<circle cx="226" cy="180" r="12" fill="#14532D"/>
<circle cx="269" cy="180" r="12" fill="#14532D"/>
<circle cx="312" cy="180" r="12" fill="#14532D"/>
</g>
<defs>
<clipPath id="clip0_1001_2">
<rect width="1024" height="1024" fill="white"/>
</clipPath>
</defs>
</svg>
